# xmcd CD database file
#
# Track frame offsets:
#	150
#	20515
#	38417
#	58705
#	74742
#	94682
#	115815
#	133610
#	147965
#	158332
#
# Disc length: 2384 seconds
#
# Revision: 0
# Processed by: cddbd v1.5PL3 Copyright (c) Steve Scherf et al.
# Submitted via: CDex 1.51
#
DISCID=81094e0a
DTITLE=Pat Torpey (ODD MAN OUT) - Y2k
DYEAR=1999
DGENRE=Hard Rock
TTITLE0=Falling Of The Sun
TTITLE1=Low Bottom Savior
TTITLE2=Man On The Ground
TTITLE3=On A Bender
TTITLE4=Hell On Highwater's Son
TTITLE5=Qp Doll
TTITLE6=The River
TTITLE7=Circus Of Circumstance
TTITLE8=Dilemma
TTITLE9=Ain't That A Shame
EXTD=YEAR: 1999
EXTT0=
EXTT1=
EXTT2=
EXTT3=
EXTT4=
EXTT5=
EXTT6=
EXTT7=
EXTT8=
EXTT9=
PLAYORDER=
